<?xml version="1.0" ?><!DOCTYPE svg  PUBLIC '-//W3C//DTD SVG 1.1//EN'  'http://www.w3.org/Graphics/SVG/1.1/DTD/svg11.dtd'><svg height="100px" id="Слой_1" style="enable-background:new 0 0 48 48;" version="1.1" viewBox="0 0 48 48" width="100px" xml:space="preserve" xmlns="http://www.w3.org/2000/svg" xmlns:xlink="http://www.w3.org/1999/xlink"><g><g><g><path d="M31,11c0,3-3.1,7-7,7s-7-4-7-7H31z" style="fill:none;"/><path d="M31,37c0-4-3.1-7-7-7s-7,3-7,7H31z" style="fill:white;"/></g><path d="M38,11v-1c0-1.1,0.9-2,2-2s2-0.9,2-2V2c0-1.1-0.9-2-2-2H8C6.9,0,6,0.9,6,2v4c0,1.1,0.9,2,2,2     s2,0.9,2,2v1c0,5.9,3.7,10.9,8.8,13c-5.2,2.1-8.8,7.1-8.8,13v1c0,1.1-0.9,2-2,2s-2,0.9-2,2v4c0,1.1,0.9,2,2,2h32c1.1,0,2-0.9,2-2     v-4c0-1.1-0.9-2-2-2s-2-0.9-2-2v-1c0-5.9-3.7-10.9-8.8-13C34.3,21.9,38,16.9,38,11z M8,2h32l0,4H8V2z M40,46H8v-4h32L40,46z      M36,37v1c0,0.7,0.2,1.4,0.6,2H11.4c0.3-0.6,0.6-1.3,0.6-2v-1c0-6.3,4.9-11.4,11-11.9V27h2v-1.9C31.1,25.6,36,30.7,36,37z      M25,22.9V21h-2v1.9c-6.1-0.5-11-5.7-11-11.9v-1c0-0.7-0.2-1.4-0.6-2h25.1C36.2,8.6,36,9.3,36,10v1C36,17.3,31.1,22.4,25,22.9z" style="fill:#303033;"/></g></g></svg>